<?xml version="1.0" encoding="utf-8"?><!-- Uploaded to: SVG Repo, www.svgrepo.com, Generator: SVG Repo Mixer Tools -->
<svg fill="#000000" width="800px" height="800px" viewBox="0 0 24 24" id="window-3" data-name="Flat Line" xmlns="http://www.w3.org/2000/svg" class="icon flat-line"><path id="secondary" d="M12,3h0a7,7,0,0,1,7,7V21a0,0,0,0,1,0,0H5a0,0,0,0,1,0,0V10A7,7,0,0,1,12,3Z" style="fill: rgb(44, 169, 188); stroke-width: 2;"></path><path id="primary" d="M12,3V21m7-9H5m14,9H5V10a7,7,0,0,1,7-7h0a7,7,0,0,1,7,7ZM3,21H21" style="fill: none; stroke: rgb(0, 0, 0); stroke-linecap: round; stroke-linejoin: round; stroke-width: 2;"></path></svg>